<svg width="18" height="17" viewBox="0 0 18 17" fill="none" xmlns="http://www.w3.org/2000/svg">
<path d="M0.814989 7.39524C0.789722 7.39214 0.789723 7.34943 0.81499 7.34632C4.10275 6.94265 6.69705 4.34836 7.10072 1.06059C7.10382 1.03533 7.14654 1.03533 7.14964 1.0606C7.55331 4.34836 10.1476 6.94266 13.4354 7.34632C13.4606 7.34943 13.4606 7.39214 13.4354 7.39524C10.1476 7.79891 7.55331 10.3932 7.14964 13.681C7.14654 13.7062 7.10382 13.7062 7.10072 13.681C6.69705 10.3932 4.10275 7.79891 0.814989 7.39524Z" fill="#7B61FF"/>
<path d="M10.5176 13.5951C10.4924 13.5913 10.4924 13.5433 10.5176 13.5395C12.1258 13.2934 13.3911 12.0281 13.6371 10.4199C13.641 10.3947 13.6889 10.3947 13.6928 10.4199C13.9388 12.0281 15.2041 13.2934 16.8124 13.5395C16.8375 13.5433 16.8375 13.5913 16.8124 13.5951C15.2041 13.8412 13.9388 15.1065 13.6928 16.7147C13.6889 16.7399 13.641 16.7399 13.6371 16.7147C13.3911 15.1065 12.1258 13.8412 10.5176 13.5951Z" fill="#7B61FF"/>
</svg>
