<svg width="81" height="80" viewBox="0 0 81 80" fill="none" xmlns="http://www.w3.org/2000/svg">
<path opacity="0.25" d="M78.4613 39.9541C78.4613 36.5429 76.1717 33.6669 73.0469 32.7773V47.1301C74.2845 46.7781 75.3909 46.1141 76.2757 45.2293C77.6261 43.8789 78.4613 42.0141 78.4613 39.9541Z" fill="#BFBFBF"/>
<path opacity="0.25" d="M8.81196 17.5731H12.3416C12.5256 17.3539 12.72 17.1427 12.9232 16.9411C14.6136 15.2691 16.9376 14.2363 19.504 14.2363C21.3712 14.2363 23.1112 14.7827 24.5704 15.7259C26.2904 16.8371 27.624 18.4955 28.3208 20.4555H61.1176C61.308 20.2099 61.5136 19.9771 61.7328 19.7571C62.8192 18.6715 64.2392 17.9187 65.8256 17.6659C66.2112 17.6043 66.6064 17.5723 67.0088 17.5723H72.1576C73.7439 17.3195 75.1632 16.5667 76.2496 15.4811C77.6 14.1307 78.4352 12.2659 78.4352 10.2059C78.4352 6.08512 75.0944 2.74512 70.9744 2.74512H9.99596C7.93596 2.74512 6.07036 3.58032 4.71996 4.92992C3.37036 6.28032 2.53516 8.14592 2.53516 10.2059C2.53516 13.9235 5.25436 17.0059 8.81276 17.5723L8.81196 17.5731ZM48.9312 15.4075C48.7368 15.2139 48.7368 14.8987 48.9312 14.7043C49.1256 14.5099 49.44 14.5099 49.6344 14.7043L51.0448 16.1147L52.4552 14.7043C52.6496 14.5099 52.964 14.5099 53.1584 14.7043C53.3528 14.8987 53.3528 15.2139 53.1584 15.4075L51.748 16.8179L53.1584 18.2283C53.3528 18.4227 53.3528 18.7379 53.1584 18.9315C53.0616 19.0291 52.9344 19.0779 52.8072 19.0779C52.68 19.0779 52.552 19.0291 52.4552 18.9315L51.0448 17.5219L49.6344 18.9315C49.5376 19.0291 49.4104 19.0779 49.2832 19.0779C49.156 19.0779 49.028 19.0291 48.9312 18.9315C48.7368 18.7379 48.7368 18.4227 48.9312 18.2283L50.3416 16.8179L48.9312 15.4075Z" fill="#BFBFBF"/>
<path opacity="0.25" d="M4.7473 34.6789C3.3977 36.0293 2.5625 37.8941 2.5625 39.9549C2.5625 44.0749 5.9025 47.4149 10.0233 47.4149H12.2985V32.4941H10.0233C7.9633 32.4941 6.0977 33.3293 4.7473 34.6789Z" fill="#BFBFBF"/>
<path opacity="0.25" d="M71.0025 62.3354H64.5353C64.2889 62.6514 63.9057 62.8554 63.4745 62.8554C63.0433 62.8554 62.6593 62.6514 62.4129 62.3354H59.2385V66.0778C59.2385 67.313 57.9113 67.9866 56.9385 67.4402C56.9369 67.4394 56.9345 67.4378 56.9329 67.437C56.9001 67.4186 56.8681 67.3986 56.8361 67.377C56.7345 67.309 56.6377 67.2266 56.5481 67.1298L48.0641 57.9346H22.2929C21.9193 58.765 21.3977 59.5146 20.7625 60.1506C19.4121 61.501 17.5473 62.3362 15.4865 62.3362H10.0233C7.9633 62.3362 6.0977 63.1714 4.7473 64.521C3.3977 65.8714 2.5625 67.7362 2.5625 69.7962C2.5625 73.917 5.9025 77.257 10.0233 77.257H71.0033C73.0633 77.257 74.9281 76.4218 76.2785 75.0722C77.6289 73.7218 78.4641 71.857 78.4641 69.7962C78.4641 65.6762 75.1233 62.3362 71.0033 62.3362L71.0025 62.3354ZM23.9913 65.2378C22.8121 65.2378 21.8561 64.2818 21.8561 63.1026C21.8561 61.9234 22.8121 60.9666 23.9913 60.9666C25.1705 60.9666 26.1265 61.9226 26.1265 63.1026C26.1265 64.2826 25.1705 65.2378 23.9913 65.2378ZM43.7121 64.5122C43.9065 64.7066 43.9065 65.0218 43.7121 65.2162C43.6153 65.313 43.4881 65.3618 43.3609 65.3618C43.2337 65.3618 43.1057 65.313 43.0089 65.2162L41.5985 63.8058L40.1881 65.2162C40.0913 65.313 39.9641 65.3618 39.8369 65.3618C39.7097 65.3618 39.5817 65.313 39.4849 65.2162C39.2905 65.0218 39.2905 64.7066 39.4849 64.5122L40.8953 63.1026L39.4849 61.6922C39.2905 61.4978 39.2905 61.1826 39.4849 60.9882C39.6793 60.7946 39.9945 60.7946 40.1881 60.9882L41.5985 62.3986L43.0089 60.9882C43.2033 60.7946 43.5177 60.7946 43.7121 60.9882C43.9065 61.1826 43.9065 61.4978 43.7121 61.6922L42.3017 63.1026L43.7121 64.5122Z" fill="#BFBFBF"/>
<path opacity="0.5" d="M69.9408 20.4546H28.3256C28.6744 21.4338 28.864 22.4898 28.864 23.589C28.864 26.8642 27.1816 29.745 24.6344 31.4162C23.8704 31.9178 23.0312 32.3098 22.1336 32.5714C21.3 32.8154 20.4192 32.945 19.508 32.945C18.8688 32.945 18.2464 32.8826 17.6432 32.7586H17.6424C15.5096 32.3274 13.6384 31.1698 12.3008 29.5554V54.8226C12.3008 56.5418 13.6936 57.9346 15.4128 57.9346H48.068L56.5512 67.129C57.5088 68.1666 59.2416 67.489 59.2416 66.077V57.9346H69.94C71.6584 57.9346 73.052 56.5418 73.052 54.8226V23.5674C73.052 21.849 71.6592 20.4546 69.94 20.4546H69.9408ZM54.3304 36.7026L50.0136 40.9098C49.6904 41.225 49.5432 41.6794 49.62 42.1234L50.6384 48.0642C50.8312 49.1842 49.6552 50.0386 48.6504 49.509L43.3144 46.7042C42.9152 46.4946 42.4384 46.4946 42.0392 46.7042L36.7032 49.509C35.6984 50.0378 34.5224 49.1842 34.7152 48.0642L35.7336 42.1234C35.8104 41.6794 35.6632 41.225 35.34 40.9098L31.0232 36.7026C30.2096 35.9098 30.6584 34.5282 31.7824 34.365L37.748 33.4986C38.1944 33.433 38.58 33.153 38.78 32.749L41.448 27.3434C41.9504 26.325 43.4024 26.325 43.9048 27.3434L46.5728 32.749C46.7728 33.1538 47.1584 33.4338 47.6048 33.4986L53.5704 34.365C54.6944 34.5282 55.1432 35.9098 54.3296 36.7026H54.3304Z" fill="#BFBFBF"/>
<path d="M49.2872 49.9091C49.0272 49.9091 48.7744 49.8459 48.5376 49.7211L47.7904 49.3283C47.6728 49.2667 47.628 49.1219 47.6896 49.0043C47.7512 48.8875 47.8968 48.8419 48.0136 48.9035L48.7608 49.2963C49.0328 49.4395 49.336 49.4675 49.6192 49.3779C49.7456 49.3379 49.8808 49.4083 49.92 49.5347C49.96 49.6611 49.8896 49.7955 49.7632 49.8355C49.608 49.8843 49.448 49.9091 49.2872 49.9091ZM35.828 49.8883C35.8136 49.8883 35.8 49.8867 35.7856 49.8843C35.0136 49.7459 34.4528 49.0819 34.4528 48.3051V48.2907C34.4544 48.1587 34.5616 48.0531 34.6928 48.0531H34.6952C34.828 48.0547 34.9344 48.1627 34.9328 48.2955V48.3051C34.9328 48.8491 35.3272 49.3139 35.8704 49.4115C36.0008 49.4347 36.088 49.5595 36.064 49.6899C36.0432 49.8059 35.9424 49.8875 35.828 49.8875V49.8883ZM37.6032 49.2747C37.5168 49.2747 37.4336 49.2283 37.3904 49.1467C37.3288 49.0291 37.3736 48.8843 37.4912 48.8227L39.1904 47.9291C39.3072 47.8675 39.4528 47.9123 39.5144 48.0299C39.576 48.1475 39.5312 48.2923 39.4136 48.3539L37.7144 49.2475C37.6784 49.2659 37.6408 49.2755 37.6032 49.2755V49.2747ZM46.2016 48.4619C46.164 48.4619 46.1256 48.4531 46.0904 48.4339L44.3912 47.5403C44.2736 47.4787 44.2288 47.3339 44.2904 47.2163C44.352 47.0987 44.4976 47.0539 44.6144 47.1155L46.3136 48.0091C46.4312 48.0707 46.476 48.2155 46.4144 48.3331C46.3712 48.4147 46.288 48.4611 46.2016 48.4611V48.4619ZM50.6456 48.3603C50.5272 48.3603 50.424 48.2723 50.408 48.1515C50.4056 48.1355 50.4032 48.1195 50.4008 48.1035L50.0864 46.2683C50.064 46.1379 50.152 46.0139 50.2824 45.9915C50.4128 45.9691 50.5368 46.0571 50.5592 46.1875L50.8736 48.0227C50.8776 48.0451 50.8808 48.0675 50.884 48.0891C50.9016 48.2203 50.8088 48.3411 50.6776 48.3579C50.6672 48.3595 50.6568 48.3603 50.6464 48.3603H50.6456ZM41.0024 47.4875C40.916 47.4875 40.8328 47.4411 40.7896 47.3587C40.728 47.2411 40.7728 47.0963 40.8904 47.0347L41.9264 46.4899C42.1864 46.3531 42.484 46.2899 42.7776 46.3083C42.9096 46.3163 43.0104 46.4307 43.0024 46.5627C42.9944 46.6947 42.88 46.7955 42.748 46.7875C42.5416 46.7747 42.3328 46.8187 42.1504 46.9147L41.1152 47.4587C41.0792 47.4771 41.0416 47.4867 41.004 47.4867L41.0024 47.4875ZM34.9992 46.6387C34.9856 46.6387 34.972 46.6379 34.9584 46.6355C34.828 46.6131 34.74 46.4891 34.7624 46.3587L35.0872 44.4659C35.1096 44.3355 35.2336 44.2475 35.364 44.2699C35.4944 44.2923 35.5824 44.4163 35.56 44.5467L35.2352 46.4395C35.2152 46.5563 35.1136 46.6387 34.9992 46.6387ZM49.9976 44.5755C49.8832 44.5755 49.7816 44.4931 49.7616 44.3763L49.4368 42.4843C49.4144 42.3539 49.5024 42.2299 49.6328 42.2075C49.764 42.1851 49.8872 42.2731 49.9096 42.4035L50.2344 44.2955C50.2568 44.4259 50.1688 44.5499 50.0384 44.5723C50.0248 44.5747 50.0112 44.5755 49.9976 44.5755ZM35.648 42.8539C35.6344 42.8539 35.6208 42.8531 35.6072 42.8507C35.4768 42.8283 35.3888 42.7043 35.4112 42.5739L35.4952 42.0827C35.5064 42.0187 35.512 41.9547 35.512 41.8907C35.512 41.5883 35.3872 41.2931 35.1704 41.0819L35.1032 41.0163C35.008 40.9235 35.0064 40.7715 35.0992 40.6771C35.192 40.5819 35.3432 40.5803 35.4384 40.6731L35.5056 40.7387C35.8144 41.0403 35.992 41.4603 35.992 41.8915C35.992 41.9827 35.984 42.0747 35.9688 42.1651L35.8848 42.6563C35.8648 42.7731 35.7632 42.8555 35.6488 42.8555L35.648 42.8539ZM50.204 40.9619C50.1416 40.9619 50.0792 40.9379 50.032 40.8891C49.9392 40.7939 49.9416 40.6419 50.036 40.5499L51.4112 39.2099C51.5064 39.1171 51.6584 39.1195 51.7504 39.2139C51.8432 39.3091 51.8408 39.4611 51.7464 39.5531L50.3712 40.8931C50.3248 40.9387 50.264 40.9611 50.204 40.9611V40.9619ZM33.896 39.7427C33.836 39.7427 33.7752 39.7203 33.7288 39.6747L32.3536 38.3347C32.2584 38.2419 32.2568 38.0899 32.3496 37.9955C32.4424 37.9003 32.5944 37.8987 32.6888 37.9915L34.064 39.3315C34.1592 39.4243 34.1608 39.5763 34.068 39.6707C34.0208 39.7187 33.9584 39.7435 33.896 39.7435V39.7427ZM52.9544 38.2819C52.892 38.2819 52.8296 38.2579 52.7824 38.2091C52.6896 38.1139 52.692 37.9619 52.7864 37.8699L54.1616 36.5299C54.3824 36.3139 54.5048 36.0291 54.5048 35.7275C54.5048 35.6035 54.4848 35.4803 54.4448 35.3619C54.4032 35.2363 54.4704 35.1003 54.5968 35.0587C54.7224 35.0171 54.8584 35.0843 54.9 35.2107C54.956 35.3787 54.984 35.5523 54.984 35.7283C54.984 36.1603 54.8104 36.5675 54.496 36.8739L53.1208 38.2139C53.0744 38.2595 53.0136 38.2819 52.9536 38.2819H52.9544ZM31.1464 37.0627C31.0864 37.0627 31.0256 37.0403 30.9792 36.9947L30.8552 36.8739C30.5408 36.5675 30.3672 36.1603 30.3672 35.7283C30.3672 35.4715 30.4288 35.2147 30.5456 34.9851C30.6056 34.8667 30.7504 34.8203 30.868 34.8803C30.9864 34.9403 31.0328 35.0851 30.9728 35.2027C30.8904 35.3651 30.8464 35.5467 30.8464 35.7283C30.8464 36.0299 30.968 36.3147 31.1896 36.5307L31.3136 36.6515C31.4088 36.7443 31.4104 36.8963 31.3176 36.9907C31.2704 37.0387 31.208 37.0635 31.1456 37.0635L31.1464 37.0627ZM53.1696 34.5459C53.1584 34.5459 53.1464 34.5451 53.1344 34.5435L51.2344 34.2675C51.1032 34.2483 51.012 34.1267 51.0312 33.9955C51.0504 33.8643 51.172 33.7731 51.3032 33.7923L53.2032 34.0683C53.3344 34.0875 53.4256 34.2091 53.4064 34.3403C53.3888 34.4595 53.2864 34.5459 53.1696 34.5459ZM32.388 34.5155C32.2704 34.5155 32.168 34.4291 32.1512 34.3099C32.132 34.1787 32.2232 34.0571 32.3544 34.0379L34.2544 33.7619C34.3856 33.7427 34.5072 33.8339 34.5264 33.9651C34.5456 34.0963 34.4544 34.2179 34.3232 34.2371L32.4232 34.5131C32.4112 34.5147 32.4 34.5155 32.388 34.5155ZM49.3696 33.9939C49.3584 33.9939 49.3464 33.9931 49.3344 33.9915L47.5688 33.7347C47.516 33.7267 47.4632 33.7163 47.4112 33.7035C47.2824 33.6715 47.204 33.5411 47.2368 33.4123C47.2688 33.2835 47.3992 33.2059 47.528 33.2379C47.564 33.2467 47.6016 33.2539 47.6384 33.2595L49.4032 33.5155C49.5344 33.5347 49.6256 33.6563 49.6064 33.7875C49.5888 33.9067 49.4864 33.9931 49.3696 33.9931V33.9939ZM36.188 33.9635C36.0704 33.9635 35.968 33.8771 35.9512 33.7579C35.932 33.6267 36.0232 33.5051 36.1544 33.4859L37.7128 33.2595C37.8064 33.2459 37.8984 33.2203 37.9864 33.1835C38.1088 33.1323 38.2496 33.1899 38.3008 33.3123C38.352 33.4347 38.2944 33.5755 38.172 33.6267C38.0472 33.6787 37.916 33.7155 37.7824 33.7347L36.224 33.9611C36.212 33.9627 36.2008 33.9635 36.1888 33.9635H36.188ZM46.2496 32.3331C46.1608 32.3331 46.076 32.2843 46.0344 32.1995L45.1848 30.4779C45.1264 30.3587 45.1752 30.2155 45.2936 30.1563C45.4128 30.0979 45.5568 30.1467 45.6152 30.2651L46.4648 31.9867C46.5232 32.1059 46.4744 32.2491 46.356 32.3083C46.3216 32.3251 46.2856 32.3331 46.2496 32.3331ZM39.1936 32.1459C39.1576 32.1459 39.1216 32.1379 39.0872 32.1211C38.968 32.0627 38.9192 31.9187 38.9784 31.7995L39.828 30.0779C39.8864 29.9587 40.0304 29.9099 40.1496 29.9691C40.2688 30.0275 40.3176 30.1715 40.2584 30.2907L39.4088 32.0123C39.3672 32.0971 39.2816 32.1459 39.1936 32.1459ZM44.5496 28.8899C44.4608 28.8899 44.376 28.8411 44.3344 28.7563L43.6888 27.4483C43.6312 27.3315 43.5568 27.2275 43.468 27.1395C43.3736 27.0459 43.3728 26.8939 43.4664 26.8003C43.56 26.7059 43.712 26.7051 43.8056 26.7987C43.932 26.9243 44.0376 27.0715 44.1192 27.2363L44.7648 28.5443C44.8232 28.6635 44.7744 28.8067 44.656 28.8659C44.6216 28.8827 44.5856 28.8907 44.5496 28.8907V28.8899ZM40.8936 28.7027C40.8576 28.7027 40.8216 28.6947 40.7872 28.6779C40.668 28.6195 40.6192 28.4755 40.6784 28.3563L41.2312 27.2363C41.3512 26.9939 41.52 26.7931 41.7328 26.6395C41.84 26.5619 41.9904 26.5867 42.068 26.6939C42.1456 26.8011 42.1208 26.9515 42.0136 27.0291C41.8648 27.1363 41.7464 27.2771 41.6616 27.4491L41.1088 28.5699C41.0672 28.6547 40.9816 28.7035 40.8936 28.7035V28.7027Z" fill="#BFBFBF"/>
<path d="M57.6738 67.8732C57.189 67.8732 56.7242 67.6724 56.373 67.2916L47.9602 58.174H15.4098C13.5618 58.174 12.0586 56.6708 12.0586 54.8228V28.89L12.4834 29.4028C13.8074 30.9996 15.6466 32.1052 17.665 32.5188L17.6898 32.5236C18.2778 32.6444 18.889 32.7052 19.5058 32.7052C20.377 32.7052 21.2378 32.5828 22.065 32.3412C22.9258 32.0908 23.745 31.7124 24.501 31.2164C27.0818 29.5236 28.6218 26.6724 28.6218 23.59C28.6218 22.5412 28.445 21.5132 28.097 20.5356L27.9826 20.2148H69.9386C71.7866 20.2148 73.2906 21.7188 73.2906 23.5676V54.8236C73.2906 56.6716 71.7866 58.1748 69.9386 58.1748H59.4802V66.078C59.4802 66.8324 59.0434 67.4716 58.341 67.746C58.121 67.8324 57.8954 67.874 57.6746 67.874L57.6738 67.8732ZM12.5386 30.1868V54.822C12.5386 56.4052 13.8266 57.6932 15.4098 57.6932H48.1706L56.7258 66.9652C57.173 67.45 57.7626 67.4548 58.1658 67.2972C58.569 67.1396 58.9994 66.7364 58.9994 66.0756V57.6924H69.9378C71.5218 57.6924 72.8098 56.4044 72.8098 54.8212V23.5652C72.8098 21.9812 71.5218 20.6924 69.9378 20.6924H28.6562C28.9514 21.6252 29.101 22.5972 29.101 23.5876C29.101 26.8324 27.4794 29.8332 24.7634 31.6156C23.9674 32.138 23.105 32.5364 22.1986 32.8004C21.3282 33.0548 20.4218 33.1836 19.505 33.1836C18.8626 33.1836 18.2258 33.1204 17.6122 32.9964L17.5922 32.9924C15.6658 32.6028 13.893 31.6148 12.5378 30.186L12.5386 30.1868Z" fill="#BFBFBF"/>
<g opacity="0.25">
<path d="M20.7259 22.328V24.9072C20.7211 25.6576 20.6211 26.208 20.4251 26.5584C20.2291 26.9096 19.9259 27.0856 19.5147 27.0856H19.5043C19.0851 27.0824 18.7779 26.9024 18.5835 26.5448C18.3875 26.184 18.2891 25.6144 18.2891 24.836V22.1704C18.3035 21.4728 18.4051 20.952 18.5939 20.608C18.7835 20.264 19.0851 20.0928 19.5003 20.0928H19.5043C19.9275 20.0936 20.2379 20.2784 20.4323 20.648C20.6275 21.0184 20.7251 21.5784 20.7251 22.3288L20.7259 22.328Z" fill="#BFBFBF"/>
<path d="M28.322 20.4538C27.6252 18.4938 26.2916 16.8354 24.5708 15.7242C23.1116 14.781 21.3716 14.2354 19.5044 14.2354C16.9388 14.2354 14.614 15.2682 12.9244 16.9402C11.2108 18.6362 10.1484 20.9882 10.1484 23.589C10.1484 25.857 10.9548 27.9362 12.2972 29.5554C13.6356 31.1698 15.506 32.3281 17.6388 32.7586H17.6396C18.2428 32.8826 18.8644 32.945 19.5044 32.945C20.4156 32.945 21.2964 32.8154 22.13 32.5714C23.0276 32.3098 23.8668 31.9178 24.6308 31.4162C27.178 29.745 28.8604 26.8642 28.8604 23.589C28.8604 22.489 28.6708 21.4338 28.322 20.4546V20.4538ZM23.1412 24.5426C23.1412 25.9514 22.8252 27.0394 22.1916 27.8034C21.5588 28.5674 20.6668 28.9498 19.5164 28.9498H19.5052C18.35 28.9474 17.4548 28.5618 16.8212 27.7962C16.186 27.0266 15.8692 25.9426 15.8692 24.5426V22.6378C15.8692 21.7946 15.982 21.0666 16.2092 20.4546C16.3612 20.0442 16.5644 19.685 16.8188 19.3778C17.4516 18.6122 18.346 18.2306 19.502 18.2306H19.5052C20.6596 18.2314 21.554 18.6154 22.1884 19.3842C22.4412 19.6906 22.6444 20.0474 22.7948 20.4546C23.026 21.069 23.1412 21.7986 23.1412 22.6442V24.5434V24.5426Z" fill="#BFBFBF"/>
</g>
<path d="M19.5164 27.3263H19.506C18.9996 27.3231 18.6084 27.0927 18.374 26.6599C18.1564 26.2599 18.0508 25.6631 18.0508 24.8367V22.1711C18.066 21.4231 18.1748 20.8759 18.3844 20.4935C18.6148 20.0743 19.0012 19.8535 19.5012 19.8535C20.0156 19.8543 20.41 20.0911 20.6452 20.5367C20.8612 20.9463 20.966 21.5327 20.966 22.3295V24.9087C20.9612 25.7095 20.8524 26.2871 20.6348 26.6767C20.398 27.1015 20.0108 27.3263 19.5148 27.3263H19.5164ZM19.5052 20.3327C19.174 20.3327 18.9524 20.4567 18.8052 20.7239C18.6364 21.0319 18.5436 21.5207 18.5308 22.1759V24.8367C18.5308 25.5711 18.6196 26.1071 18.7956 26.4311C18.9484 26.7127 19.174 26.8447 19.5068 26.8463H19.5156C19.8404 26.8463 20.0628 26.7183 20.2164 26.4423C20.3916 26.1295 20.482 25.6127 20.4868 24.9063V22.3279C20.4868 21.6215 20.3972 21.0935 20.2212 20.7591C20.0676 20.4687 19.8404 20.3327 19.5044 20.3319L19.5052 20.3327Z" fill="#BFBFBF"/>
<path d="M19.507 33.1847C18.8638 33.1847 18.227 33.1215 17.6134 32.9975L17.5934 32.9935C15.4582 32.5623 13.5126 31.3951 12.1142 29.7079C10.6926 27.9935 9.91016 25.8207 9.91016 23.5887C9.91016 21.0079 10.9214 18.5863 12.7574 16.7687C14.5654 14.9799 16.9622 13.9951 19.5062 13.9951C21.3598 13.9951 23.1566 14.5231 24.703 15.5231C26.479 16.6703 27.8454 18.3927 28.5502 20.3735C28.9166 21.4031 29.103 22.4847 29.103 23.5887C29.103 26.8335 27.4814 29.8343 24.7646 31.6167C23.9694 32.1391 23.1062 32.5375 22.1998 32.8015C21.3302 33.0559 20.4238 33.1847 19.507 33.1847ZM17.6654 32.5183L17.6902 32.5231C18.2774 32.6439 18.8886 32.7047 19.5062 32.7047C20.3782 32.7047 21.239 32.5823 22.0646 32.3407C22.9262 32.0895 23.7454 31.7111 24.5006 31.2151C27.0814 29.5223 28.6222 26.6711 28.6222 23.5887C28.6222 22.5399 28.4454 21.5127 28.0974 20.5343C27.4286 18.6527 26.1302 17.0159 24.4422 15.9255C22.9742 14.9767 21.267 14.4751 19.5062 14.4751C17.0886 14.4751 14.8118 15.4111 13.095 17.1103C11.351 18.8367 10.3902 21.1375 10.3902 23.5887C10.3902 25.7095 11.1334 27.7735 12.4838 29.4015C13.8078 30.9983 15.647 32.1047 17.6654 32.5183Z" fill="#BFBFBF"/>
<path d="M19.52 29.1901H19.5088C18.284 29.1869 17.3192 28.7701 16.64 27.9493C15.9712 27.1397 15.6328 25.9933 15.6328 24.5421V22.6373C15.6328 21.7685 15.752 21.0053 15.988 20.3701C16.148 19.9365 16.3672 19.5509 16.6376 19.2237C17.3136 18.4045 18.2792 17.9893 19.5056 17.9893C20.7336 17.9901 21.6992 18.4077 22.3776 19.2301C22.648 19.5581 22.8656 19.9413 23.024 20.3701C23.2632 21.0061 23.3856 21.7717 23.3856 22.6429V24.5421C23.3856 26.0029 23.0472 27.1517 22.3808 27.9565C21.7032 28.7749 20.7408 29.1901 19.5208 29.1901H19.52ZM19.508 18.4701C18.4128 18.4701 17.5952 18.8165 17.0064 19.5301C16.7704 19.8157 16.5784 20.1541 16.4368 20.5373C16.2208 21.1189 16.112 21.8253 16.112 22.6373V24.5421C16.112 25.8789 16.4136 26.9221 17.0096 27.6429C17.6016 28.3581 18.4192 28.7069 19.5096 28.7093H19.5208C20.6064 28.7093 21.4208 28.3629 22.0112 27.6501C22.6048 26.9341 22.9056 25.8885 22.9056 24.5421V22.6429C22.9056 21.8293 22.7944 21.1213 22.5744 20.5381C22.4336 20.1589 22.2432 19.8221 22.0072 19.5357C21.416 18.8189 20.5984 18.4701 19.5088 18.4693L19.508 18.4701Z" fill="#BFBFBF"/>
<path d="M61.9475 53.979H23.9939C23.8611 53.979 23.7539 53.8718 23.7539 53.739C23.7539 53.6062 23.8611 53.499 23.9939 53.499H61.9475C62.0803 53.499 62.1875 53.6062 62.1875 53.739C62.1875 53.8718 62.0803 53.979 61.9475 53.979Z" fill="#BFBFBF"/>
<path d="M49.5648 55.6333H36.3728C36.24 55.6333 36.1328 55.5261 36.1328 55.3933C36.1328 55.2605 36.24 55.1533 36.3728 55.1533H49.5648C49.6976 55.1533 49.8048 55.2605 49.8048 55.3933C49.8048 55.5261 49.6976 55.6333 49.5648 55.6333Z" fill="#BFBFBF"/>
<path d="M19.5091 35.9839H14.9275C14.7947 35.9839 14.6875 35.8767 14.6875 35.7439C14.6875 35.6111 14.7947 35.5039 14.9275 35.5039H19.5091C19.6419 35.5039 19.7491 35.6111 19.7491 35.7439C19.7491 35.8767 19.6419 35.9839 19.5091 35.9839Z" fill="#BFBFBF"/>
<path d="M19.5091 39.3667H14.9275C14.7947 39.3667 14.6875 39.2595 14.6875 39.1267C14.6875 38.9939 14.7947 38.8867 14.9275 38.8867H19.5091C19.6419 38.8867 19.7491 38.9939 19.7491 39.1267C19.7491 39.2595 19.6419 39.3667 19.5091 39.3667Z" fill="#BFBFBF"/>
<path opacity="0.75" d="M63.4792 62.8539C64.2228 62.8539 64.8256 62.2511 64.8256 61.5075C64.8256 60.7639 64.2228 60.1611 63.4792 60.1611C62.7356 60.1611 62.1328 60.7639 62.1328 61.5075C62.1328 62.2511 62.7356 62.8539 63.4792 62.8539Z" fill="#BFBFBF"/>
<path opacity="0.75" d="M23.9946 65.2362C25.1738 65.2362 26.1298 64.2803 26.1298 63.101C26.1298 61.9218 25.1738 60.9658 23.9946 60.9658C22.8153 60.9658 21.8594 61.9218 21.8594 63.101C21.8594 64.2803 22.8153 65.2362 23.9946 65.2362Z" fill="#BFBFBF"/>
<path opacity="0.5" d="M42.3064 63.1002L43.7167 61.6898C43.9111 61.4954 43.9111 61.181 43.7167 60.9866C43.5223 60.7922 43.2071 60.7922 43.0135 60.9866L41.6031 62.397L40.1927 60.9866C39.9983 60.7922 39.6831 60.7922 39.4895 60.9866C39.2951 61.181 39.2951 61.4954 39.4895 61.6898L40.9 63.1002L39.4895 64.5106C39.2951 64.705 39.2951 65.0194 39.4895 65.2138C39.5863 65.3106 39.7143 65.3594 39.8415 65.3594C39.9687 65.3594 40.0959 65.3106 40.1935 65.2138L41.6039 63.8034L43.0143 65.2138C43.1111 65.3106 43.2392 65.3594 43.3664 65.3594C43.4936 65.3594 43.6207 65.3106 43.7183 65.2138C43.9127 65.0194 43.9127 64.705 43.7183 64.5106L42.3079 63.1002H42.3064Z" fill="#BFBFBF"/>
<path opacity="0.5" d="M51.7517 16.816L53.1621 15.4056C53.3565 15.2112 53.3565 14.8968 53.1621 14.7024C52.9677 14.508 52.6525 14.508 52.4589 14.7024L51.0485 16.1128L49.6381 14.7024C49.4437 14.508 49.1285 14.508 48.9349 14.7024C48.7405 14.8968 48.7405 15.2112 48.9349 15.4056L50.3453 16.816L48.9349 18.2264C48.7405 18.4208 48.7405 18.7352 48.9349 18.9296C49.0317 19.0264 49.1597 19.0752 49.2869 19.0752C49.4141 19.0752 49.5413 19.0264 49.6389 18.9296L51.0493 17.5192L52.4597 18.9296C52.5565 19.0264 52.6845 19.0752 52.8117 19.0752C52.9389 19.0752 53.0661 19.0264 53.1637 18.9296C53.3581 18.7352 53.3581 18.4208 53.1637 18.2264L51.7533 16.816H51.7517Z" fill="#BFBFBF"/>
</svg>
