<svg width="92" height="23" viewBox="0 0 92 23" fill="none" xmlns="http://www.w3.org/2000/svg">
<path d="M0.468047 10.0177C0.443531 10.0147 0.44353 9.97337 0.468047 9.97032C3.66722 9.57137 6.19213 6.99412 6.58487 3.72753C6.58783 3.7029 6.62949 3.7029 6.63245 3.72753C7.02519 6.99412 9.5501 9.57137 12.7493 9.97032C12.7738 9.97337 12.7738 10.0147 12.7493 10.0177C9.5501 10.4167 7.02519 12.9939 6.63245 16.2605C6.62949 16.2851 6.58783 16.2851 6.58487 16.2605C6.19213 12.9939 3.66722 10.4167 0.468047 10.0177Z" fill="#33D4D0"/>
<path d="M9.9011 16.1749C9.87669 16.1711 9.87669 16.1249 9.9011 16.1211C11.4671 15.8785 12.6997 14.6211 12.9392 13.0224C12.9429 12.9979 12.9897 12.9979 12.9933 13.0224C13.2329 14.6211 14.4654 15.8785 16.0314 16.1211C16.0559 16.1249 16.0559 16.1711 16.0314 16.1749C14.4654 16.4174 13.2329 17.6749 12.9933 19.2735C12.9897 19.2981 12.9429 19.2981 12.9392 19.2735C12.6997 17.6749 11.4671 16.4174 9.9011 16.1749Z" fill="#33D4D0"/>
<path d="M24.334 16L28.03 6.396H30.606L34.302 16H32.048L31.362 14.11H27.176L26.49 16H24.334ZM27.778 12.43H30.76L29.906 10.064C29.8687 9.96133 29.822 9.84 29.766 9.7C29.7193 9.55067 29.668 9.38733 29.612 9.21C29.556 9.03267 29.5 8.86 29.444 8.692C29.3973 8.51467 29.3507 8.356 29.304 8.216H29.22C29.1733 8.39333 29.1127 8.60333 29.038 8.846C28.9633 9.07933 28.8887 9.308 28.814 9.532C28.7393 9.74667 28.6787 9.924 28.632 10.064L27.778 12.43ZM35.4449 16V6.396H37.5309V16H35.4449Z" fill="#10142C"/>
<rect x="47.25" width="44" height="23" rx="4" fill="#33D4D0"/>
<path d="M54.68 16V8.146H51.6V6.396H59.874V8.146H56.78V16H54.68ZM62.5104 16.168C61.7637 16.168 61.171 15.9627 60.7324 15.552C60.2937 15.1413 60.0744 14.4787 60.0744 13.564V8.636H62.0204V13.242C62.0204 13.4847 62.0484 13.69 62.1044 13.858C62.1604 14.0167 62.2397 14.1473 62.3424 14.25C62.4544 14.3527 62.5897 14.4273 62.7484 14.474C62.907 14.5207 63.0844 14.544 63.2804 14.544C63.5697 14.544 63.831 14.474 64.0644 14.334C64.2977 14.194 64.4797 14.0027 64.6104 13.76C64.741 13.508 64.8064 13.228 64.8064 12.92V8.636H66.7524V16H65.1564L65.0164 14.992H64.9184C64.741 15.2253 64.531 15.4307 64.2884 15.608C64.055 15.7853 63.789 15.9207 63.4904 16.014C63.1917 16.1167 62.865 16.168 62.5104 16.168ZM70.7366 16.168C70.2699 16.168 69.8919 16.084 69.6026 15.916C69.3132 15.748 69.1032 15.524 68.9726 15.244C68.8419 14.9547 68.7766 14.6373 68.7766 14.292V10.134H67.8666V8.636H68.8466L69.2106 6.536H70.7226V8.636H72.0666V10.134H70.7226V13.97C70.7226 14.194 70.7739 14.3667 70.8766 14.488C70.9792 14.6 71.1472 14.656 71.3806 14.656H72.0666V15.944C71.9546 15.9813 71.8239 16.014 71.6746 16.042C71.5252 16.0793 71.3666 16.1073 71.1986 16.126C71.0306 16.154 70.8766 16.168 70.7366 16.168ZM76.7117 16.168C75.9091 16.168 75.2277 16.0327 74.6677 15.762C74.1077 15.482 73.6831 15.0573 73.3937 14.488C73.1044 13.9093 72.9597 13.186 72.9597 12.318C72.9597 11.4313 73.1044 10.708 73.3937 10.148C73.6831 9.57867 74.1077 9.15867 74.6677 8.888C75.2277 8.608 75.9091 8.468 76.7117 8.468C77.5331 8.468 78.2191 8.608 78.7697 8.888C79.3297 9.15867 79.7544 9.57867 80.0437 10.148C80.3331 10.708 80.4777 11.4313 80.4777 12.318C80.4777 13.186 80.3331 13.9093 80.0437 14.488C79.7544 15.0573 79.3297 15.482 78.7697 15.762C78.2191 16.0327 77.5331 16.168 76.7117 16.168ZM76.7117 14.656C77.1411 14.656 77.4817 14.5767 77.7337 14.418C77.9951 14.2593 78.1864 14.0167 78.3077 13.69C78.4291 13.3633 78.4897 12.962 78.4897 12.486V12.15C78.4897 11.674 78.4291 11.2727 78.3077 10.946C78.1864 10.6193 77.9951 10.3767 77.7337 10.218C77.4817 10.05 77.1411 9.966 76.7117 9.966C76.2917 9.966 75.9511 10.05 75.6897 10.218C75.4377 10.3767 75.2511 10.6193 75.1297 10.946C75.0084 11.2727 74.9477 11.674 74.9477 12.15V12.486C74.9477 12.962 75.0084 13.3633 75.1297 13.69C75.2511 14.0167 75.4377 14.2593 75.6897 14.418C75.9511 14.5767 76.2917 14.656 76.7117 14.656ZM81.9097 16V8.636H83.5197L83.6737 9.784H83.7717C83.865 9.54133 83.9863 9.322 84.1357 9.126C84.285 8.92067 84.4717 8.75733 84.6957 8.636C84.9197 8.51467 85.181 8.454 85.4797 8.454C85.6383 8.454 85.783 8.47267 85.9137 8.51C86.0443 8.538 86.1423 8.566 86.2077 8.594V10.358H85.6057C85.3163 10.358 85.0597 10.4 84.8357 10.484C84.621 10.5587 84.439 10.68 84.2897 10.848C84.1403 11.016 84.0283 11.2213 83.9537 11.464C83.8883 11.7067 83.8557 11.9913 83.8557 12.318V16H81.9097Z" fill="white"/>
</svg>
