<svg width="100" height="24" viewBox="0 0 100 24" fill="none" xmlns="http://www.w3.org/2000/svg">
<path d="M0.405547 10.5177C0.381031 10.5147 0.38103 10.4734 0.405547 10.4703C3.60472 10.0714 6.12963 7.49412 6.52237 4.22753C6.52533 4.2029 6.56699 4.2029 6.56995 4.22753C6.96269 7.49412 9.4876 10.0714 12.6868 10.4703C12.7113 10.4734 12.7113 10.5147 12.6868 10.5177C9.4876 10.9167 6.96269 13.4939 6.56995 16.7605C6.56699 16.7851 6.52533 16.7851 6.52237 16.7605C6.12963 13.4939 3.60472 10.9167 0.405547 10.5177Z" fill="#7E73FF"/>
<path d="M9.8386 16.6749C9.81419 16.6711 9.81419 16.6249 9.8386 16.6211C11.4046 16.3785 12.6372 15.1211 12.8767 13.5224C12.8804 13.4979 12.9272 13.4979 12.9308 13.5224C13.1704 15.1211 14.4029 16.3785 15.9689 16.6211C15.9934 16.6249 15.9934 16.6711 15.9689 16.6749C14.4029 16.9174 13.1704 18.1749 12.9308 19.7735C12.9272 19.7981 12.8804 19.7981 12.8767 19.7735C12.6372 18.1749 11.4046 16.9174 9.8386 16.6749Z" fill="#7E73FF"/>
<path d="M24.2715 16.5L27.9675 6.896H30.5435L34.2395 16.5H31.9855L31.2995 14.61H27.1135L26.4275 16.5H24.2715ZM27.7155 12.93H30.6975L29.8435 10.564C29.8062 10.4613 29.7595 10.34 29.7035 10.2C29.6568 10.0507 29.6055 9.88733 29.5495 9.71C29.4935 9.53267 29.4375 9.36 29.3815 9.192C29.3348 9.01467 29.2882 8.856 29.2415 8.716H29.1575C29.1108 8.89333 29.0502 9.10333 28.9755 9.346C28.9008 9.57933 28.8262 9.808 28.7515 10.032C28.6768 10.2467 28.6162 10.424 28.5695 10.564L27.7155 12.93ZM35.3824 16.5V6.896H37.4684V16.5H35.3824Z" fill="#10142C"/>
<rect x="47.1875" y="0.5" width="52" height="23" rx="4" fill="#7E73FF"/>
<path d="M56.5495 16.668C55.5508 16.668 54.6968 16.4953 53.9875 16.15C53.2782 15.7953 52.7368 15.2493 52.3635 14.512C51.9995 13.7747 51.8175 12.8367 51.8175 11.698C51.8175 10.018 52.2282 8.772 53.0495 7.96C53.8802 7.13867 55.0468 6.728 56.5495 6.728C57.3708 6.728 58.1082 6.868 58.7615 7.148C59.4148 7.428 59.9282 7.848 60.3015 8.408C60.6842 8.968 60.8755 9.67267 60.8755 10.522H58.7755C58.7755 10.074 58.6822 9.696 58.4955 9.388C58.3182 9.08 58.0615 8.84667 57.7255 8.688C57.3988 8.52 57.0162 8.436 56.5775 8.436C55.9802 8.436 55.4855 8.55267 55.0935 8.786C54.7108 9.01933 54.4262 9.36467 54.2395 9.822C54.0622 10.27 53.9735 10.8207 53.9735 11.474V11.908C53.9735 12.58 54.0668 13.1447 54.2535 13.602C54.4402 14.05 54.7202 14.3907 55.0935 14.624C55.4762 14.848 55.9662 14.96 56.5635 14.96C57.0302 14.96 57.4362 14.8807 57.7815 14.722C58.1268 14.5633 58.3928 14.33 58.5795 14.022C58.7662 13.714 58.8595 13.336 58.8595 12.888H60.8755C60.8755 13.7373 60.6888 14.442 60.3155 15.002C59.9515 15.562 59.4428 15.982 58.7895 16.262C58.1362 16.5327 57.3895 16.668 56.5495 16.668ZM65.7391 16.668C64.9364 16.668 64.2551 16.5327 63.6951 16.262C63.1351 15.982 62.7104 15.5573 62.4211 14.988C62.1317 14.4093 61.9871 13.686 61.9871 12.818C61.9871 11.9313 62.1317 11.208 62.4211 10.648C62.7104 10.0787 63.1351 9.65867 63.6951 9.388C64.2551 9.108 64.9364 8.968 65.7391 8.968C66.5604 8.968 67.2464 9.108 67.7971 9.388C68.3571 9.65867 68.7817 10.0787 69.0711 10.648C69.3604 11.208 69.5051 11.9313 69.5051 12.818C69.5051 13.686 69.3604 14.4093 69.0711 14.988C68.7817 15.5573 68.3571 15.982 67.7971 16.262C67.2464 16.5327 66.5604 16.668 65.7391 16.668ZM65.7391 15.156C66.1684 15.156 66.5091 15.0767 66.7611 14.918C67.0224 14.7593 67.2137 14.5167 67.3351 14.19C67.4564 13.8633 67.5171 13.462 67.5171 12.986V12.65C67.5171 12.174 67.4564 11.7727 67.3351 11.446C67.2137 11.1193 67.0224 10.8767 66.7611 10.718C66.5091 10.55 66.1684 10.466 65.7391 10.466C65.3191 10.466 64.9784 10.55 64.7171 10.718C64.4651 10.8767 64.2784 11.1193 64.1571 11.446C64.0357 11.7727 63.9751 12.174 63.9751 12.65V12.986C63.9751 13.462 64.0357 13.8633 64.1571 14.19C64.2784 14.5167 64.4651 14.7593 64.7171 14.918C64.9784 15.0767 65.3191 15.156 65.7391 15.156ZM72.883 16.668C72.6403 16.668 72.379 16.64 72.099 16.584C71.8283 16.528 71.5717 16.43 71.329 16.29C71.0863 16.1407 70.8857 15.9307 70.727 15.66C70.5777 15.38 70.503 15.0253 70.503 14.596C70.503 14.0827 70.615 13.658 70.839 13.322C71.063 12.986 71.3803 12.7247 71.791 12.538C72.211 12.342 72.7103 12.2067 73.289 12.132C73.8677 12.0573 74.507 12.02 75.207 12.02V11.474C75.207 11.2593 75.1697 11.0727 75.095 10.914C75.0297 10.7553 74.9083 10.6293 74.731 10.536C74.563 10.4427 74.325 10.396 74.017 10.396C73.709 10.396 73.457 10.4333 73.261 10.508C73.0743 10.5827 72.939 10.6807 72.855 10.802C72.7803 10.914 72.743 11.04 72.743 11.18V11.348H70.853C70.8437 11.3013 70.839 11.2593 70.839 11.222C70.839 11.1753 70.839 11.1193 70.839 11.054C70.839 10.6247 70.9697 10.256 71.231 9.948C71.4923 9.63067 71.861 9.388 72.337 9.22C72.813 9.052 73.3683 8.968 74.003 8.968C74.6843 8.968 75.2537 9.05667 75.711 9.234C76.1777 9.41133 76.5323 9.67267 76.775 10.018C77.027 10.3633 77.153 10.7973 77.153 11.32V14.666C77.153 14.834 77.1997 14.96 77.293 15.044C77.3957 15.1187 77.5077 15.156 77.629 15.156H78.091V16.43C77.9977 16.4767 77.853 16.5233 77.657 16.57C77.461 16.626 77.223 16.654 76.943 16.654C76.6723 16.654 76.4297 16.612 76.215 16.528C76.0097 16.4533 75.837 16.346 75.697 16.206C75.557 16.0567 75.459 15.8793 75.403 15.674H75.305C75.1463 15.87 74.9503 16.0427 74.717 16.192C74.493 16.3413 74.227 16.458 73.919 16.542C73.6203 16.626 73.275 16.668 72.883 16.668ZM73.541 15.198C73.8023 15.198 74.0357 15.1607 74.241 15.086C74.4463 15.002 74.619 14.8947 74.759 14.764C74.899 14.624 75.0063 14.456 75.081 14.26C75.165 14.064 75.207 13.854 75.207 13.63V13.224C74.6843 13.224 74.2177 13.2613 73.807 13.336C73.3963 13.4013 73.0697 13.518 72.827 13.686C72.5937 13.854 72.477 14.0873 72.477 14.386C72.477 14.554 72.519 14.6987 72.603 14.82C72.687 14.9413 72.8083 15.0347 72.967 15.1C73.1257 15.1653 73.317 15.198 73.541 15.198ZM82.2921 16.668C81.5081 16.668 80.8501 16.5327 80.3181 16.262C79.7861 15.982 79.3801 15.5573 79.1001 14.988C78.8294 14.4093 78.6941 13.686 78.6941 12.818C78.6941 11.9313 78.8294 11.208 79.1001 10.648C79.3801 10.0787 79.7861 9.654 80.3181 9.374C80.8594 9.094 81.5174 8.954 82.2921 8.954C82.7961 8.954 83.2488 9.01467 83.6501 9.136C84.0608 9.25733 84.4154 9.444 84.7141 9.696C85.0128 9.948 85.2368 10.2607 85.3861 10.634C85.5448 10.998 85.6241 11.432 85.6241 11.936H83.6781C83.6781 11.6 83.6268 11.3247 83.5241 11.11C83.4214 10.8953 83.2628 10.732 83.0481 10.62C82.8428 10.508 82.5814 10.452 82.2641 10.452C81.8908 10.452 81.5874 10.536 81.3541 10.704C81.1208 10.872 80.9481 11.1193 80.8361 11.446C80.7241 11.7727 80.6681 12.1787 80.6681 12.664V12.986C80.6681 13.462 80.7241 13.8633 80.8361 14.19C80.9574 14.5167 81.1394 14.764 81.3821 14.932C81.6248 15.0907 81.9421 15.17 82.3341 15.17C82.6514 15.17 82.9128 15.114 83.1181 15.002C83.3328 14.89 83.4961 14.722 83.6081 14.498C83.7201 14.274 83.7761 14.0033 83.7761 13.686H85.6241C85.6241 14.162 85.5448 14.5867 85.3861 14.96C85.2368 15.3333 85.0128 15.646 84.7141 15.898C84.4248 16.15 84.0748 16.3413 83.6641 16.472C83.2534 16.6027 82.7961 16.668 82.2921 16.668ZM87.0835 16.5V6.378H89.0295V9.948H89.1275C89.2862 9.752 89.4728 9.584 89.6875 9.444C89.9115 9.29467 90.1588 9.178 90.4295 9.094C90.7095 9.01 91.0128 8.968 91.3395 8.968C91.8248 8.968 92.2495 9.05667 92.6135 9.234C92.9775 9.41133 93.2575 9.69133 93.4535 10.074C93.6588 10.4567 93.7615 10.956 93.7615 11.572V16.5H91.8155V11.88C91.8155 11.6467 91.7875 11.4507 91.7315 11.292C91.6755 11.124 91.5915 10.9887 91.4795 10.886C91.3768 10.774 91.2462 10.6947 91.0875 10.648C90.9288 10.6013 90.7515 10.578 90.5555 10.578C90.2662 10.578 90.0048 10.648 89.7715 10.788C89.5382 10.928 89.3562 11.1193 89.2255 11.362C89.0948 11.6047 89.0295 11.8847 89.0295 12.202V16.5H87.0835Z" fill="white"/>
</svg>
