<svg width="33" height="32" viewBox="0 0 33 32" fill="none" xmlns="http://www.w3.org/2000/svg">
<rect x="0.25" width="32" height="32" rx="6.4" fill="white"/>
<path d="M21.1807 17.927C20.7466 19.1388 19.8956 20.1567 18.7799 20.7987C17.6642 21.4407 16.3565 21.6649 15.0906 21.4311C13.8248 21.1974 12.6834 20.521 11.8705 19.5229C11.0576 18.5248 10.6262 17.2701 10.6536 15.9832C10.6809 14.6963 11.1651 13.461 12.0196 12.4983C12.8741 11.5356 14.0432 10.9083 15.3178 10.7285C16.5924 10.5487 17.8894 10.8281 18.9769 11.5168C20.0644 12.2056 20.8714 13.2587 21.2537 14.4878L16.0753 16.0983L21.1807 17.927Z" fill="#3D75EA"/>
<path d="M24.9714 19.2849C25.6888 19.5418 26.0698 20.3371 25.7237 21.0161C24.7753 22.8769 23.3035 24.4333 21.4762 25.4848C19.2482 26.7667 16.6368 27.2144 14.109 26.7476C11.5813 26.2809 9.30193 24.9302 7.67865 22.9371C6.05537 20.944 5.19398 18.4385 5.24853 15.8685C5.30308 13.2986 6.27001 10.8319 7.9764 8.90945C9.6828 6.98703 12.0174 5.73428 14.5627 5.37522C17.108 5.01615 19.698 5.57419 21.8696 6.94955C23.6507 8.07756 25.0551 9.69501 25.9237 11.5944C26.2406 12.2875 25.8263 13.0659 25.0986 13.2922C24.371 13.5185 23.6078 13.1042 23.2609 12.4257C22.6074 11.1471 21.6203 10.0581 20.3931 9.28089C18.7749 8.25602 16.8449 7.84018 14.9482 8.10774C13.0515 8.37531 11.3118 9.30883 10.0402 10.7414C8.76867 12.1739 8.04814 14.012 8.00749 15.9271C7.96685 17.8421 8.60873 19.7092 9.81836 21.1944C11.028 22.6796 12.7265 23.6861 14.6101 24.0339C16.4937 24.3817 18.4397 24.0481 20.0999 23.0929C21.359 22.3684 22.3914 21.3223 23.0986 20.0726C23.4739 19.4094 24.254 19.0279 24.9714 19.2849Z" fill="#3D75EA"/>
</svg>
