<svg width="40" height="41" viewBox="0 0 40 41" fill="none" xmlns="http://www.w3.org/2000/svg">
<rect y="0.5" width="40" height="40" rx="8" fill="#3D75EA"/>
<path d="M26.1624 22.9089C25.6198 24.4237 24.556 25.6961 23.1614 26.4985C21.7667 27.301 20.1321 27.5812 18.5498 27.289C16.9675 26.9969 15.5408 26.1514 14.5246 24.9038C13.5085 23.6562 12.9693 22.0878 13.0035 20.4791C13.0376 18.8704 13.6429 17.3264 14.711 16.123C15.7792 14.9196 17.2405 14.1355 18.8338 13.9107C20.4271 13.6859 22.0483 14.0352 23.4077 14.8962C24.767 15.7571 25.7758 17.0735 26.2536 18.6099L19.7807 20.623L26.1624 22.9089Z" fill="white"/>
<path d="M30.9008 24.6057C31.7975 24.9269 32.2737 25.9211 31.8412 26.7697C30.6556 29.0958 28.8159 31.0413 26.5318 32.3556C23.7468 33.958 20.4825 34.5176 17.3228 33.9342C14.1631 33.3507 11.3139 31.6624 9.28484 29.171C7.25573 26.6796 6.179 23.5477 6.24719 20.3353C6.31538 17.1229 7.52403 14.0395 9.65703 11.6365C11.79 9.23342 14.7083 7.66748 17.8899 7.21865C21.0715 6.76982 24.3091 7.46737 27.0236 9.18657C29.2499 10.5966 31.0053 12.6184 32.0911 14.9927C32.4873 15.859 31.9694 16.832 31.0598 17.1149C30.1502 17.3977 29.1962 16.8799 28.7627 16.0317C27.9458 14.4335 26.7118 13.0722 25.1779 12.1008C23.1551 10.8197 20.7426 10.2999 18.3717 10.6343C16.0009 10.9688 13.8263 12.1357 12.2368 13.9263C10.6474 15.717 9.7467 18.0147 9.69589 20.4085C9.64508 22.8023 10.4474 25.1361 11.9595 26.9926C13.4715 28.8491 15.5946 30.1073 17.9492 30.542C20.3037 30.9768 22.7361 30.5598 24.8114 29.3657C26.3852 28.4602 27.6758 27.1525 28.5598 25.5904C29.0289 24.7614 30.004 24.2845 30.9008 24.6057Z" fill="white"/>
</svg>
