<svg width="21" height="21" viewBox="0 0 21 21" fill="none" xmlns="http://www.w3.org/2000/svg">
<g clip-path="url(#clip0_719_12239)">
<path d="M20.4895 10.6868C20.4895 9.86743 20.4214 9.26949 20.2742 8.64941H10.6992V12.3477H16.3195C16.2062 13.2668 15.5943 14.6509 14.2346 15.581L14.2155 15.7048L17.2429 17.9967L17.4527 18.0171C19.3789 16.2787 20.4895 13.7208 20.4895 10.6868Z" fill="#4285F4"/>
<path d="M10.6983 20.4312C13.4517 20.4312 15.7633 19.5453 17.4517 18.0173L14.2336 15.5812C13.3725 16.1681 12.2166 16.5777 10.6983 16.5777C8.00145 16.5777 5.71254 14.8393 4.89661 12.4365L4.77701 12.4464L1.62906 14.8271L1.58789 14.939C3.26491 18.1944 6.70963 20.4312 10.6983 20.4312Z" fill="#34A853"/>
<path d="M4.8965 12.4363C4.68121 11.8163 4.55661 11.1518 4.55661 10.4653C4.55661 9.77878 4.68121 9.11443 4.88517 8.49435L4.87947 8.36229L1.69206 5.94336L1.58778 5.99183C0.8966 7.34275 0.5 8.85977 0.5 10.4653C0.5 12.0709 0.8966 13.5879 1.58778 14.9388L4.8965 12.4363Z" fill="#FBBC05"/>
<path d="M10.6983 4.35336C12.6132 4.35336 13.905 5.16168 14.6415 5.83718L17.5197 3.09107C15.7521 1.4855 13.4517 0.5 10.6983 0.5C6.70963 0.5 3.26491 2.73672 1.58789 5.99214L4.88529 8.49466C5.71254 6.09183 8.00145 4.35336 10.6983 4.35336Z" fill="#EB4335"/>
</g>
<defs>
<clipPath id="clip0_719_12239">
<rect width="20" height="20" fill="white" transform="translate(0.5 0.5)"/>
</clipPath>
</defs>
</svg>
